<?xml version="1.0" encoding="utf-8"?>
<!-- Generator: Adobe Illustrator 23.0.5, SVG Export Plug-In . SVG Version: 6.00 Build 0)  -->
<svg version="1.1" id="Capa_1" xmlns="http://www.w3.org/2000/svg" xmlns:xlink="http://www.w3.org/1999/xlink" x="0px" y="0px"
	 viewBox="0 0 595.28 841.89" style="enable-background:new 0 0 595.28 841.89;" xml:space="preserve">
<style type="text/css">
	.st0{fill:#D4E7E7;}
	.st1{fill:#1FA0C0;}
	.st2{fill:#19758C;}
	.st3{opacity:0.25;fill:#D4E7E7;}
</style>
<path class="st0" d="M323.25,579.49l-24.7-23.41c-1.34-1.27-3.39-1.39-4.87-0.28l-31.65,23.69H323.25z"/>
<path class="st0" d="M323.25,579.49v-92c0,0-22.98-22.4-41,0l6.96,53.08c2.12,16.17,12.69,30,27.74,36.29L323.25,579.49z"/>
<path class="st0" d="M325.25,579.49l24.74-23.41c1.34-1.27,3.4-1.39,4.87-0.28l31.7,23.69H325.25z"/>
<path class="st0" d="M325.25,579.49v-92c0,0,23.02-22.4,41.07,0l-6.98,53.08c-2.13,16.17-12.71,30-27.78,36.29L325.25,579.49z"/>
<circle class="st1" cx="317.11" cy="381.02" r="118.63"/>
<path class="st0" d="M212.49,473.05L212.49,473.05c-7.73,0-14-6.27-14-14v-72c0-7.73,6.27-14,14-14h0c7.73,0,14,6.27,14,14v72
	C226.49,466.78,220.22,473.05,212.49,473.05z"/>
<path class="st0" d="M212.49,546.65L212.49,546.65c-7.73,0-14-6.27-14-14v-72c0-7.73,6.27-14,14-14h0c7.73,0,14,6.27,14,14v72
	C226.49,540.38,220.22,546.65,212.49,546.65z"/>
<path class="st0" d="M212.49,573.05L212.49,573.05c-7.73,0-14-6.27-14-14v-24.27c0-7.73,6.27-14,14-14h0c7.73,0,14,6.27,14,14v24.27
	C226.49,566.78,220.22,573.05,212.49,573.05z"/>
<path class="st0" d="M422.3,467.27L422.3,467.27c-7.73,0-14-6.27-14-14v-72c0-7.73,6.27-14,14-14h0c7.73,0,14,6.27,14,14v72
	C436.3,461,430.03,467.27,422.3,467.27z"/>
<path class="st0" d="M422.3,540.87L422.3,540.87c-7.73,0-14-6.27-14-14v-72c0-7.73,6.27-14,14-14h0c7.73,0,14,6.27,14,14v72
	C436.3,534.6,430.03,540.87,422.3,540.87z"/>
<path class="st0" d="M422.3,567.27L422.3,567.27c-7.73,0-14-6.27-14-14v-24.27c0-7.73,6.27-14,14-14h0c7.73,0,14,6.27,14,14v24.27
	C436.3,561,430.03,567.27,422.3,567.27z"/>
<path d="M317.11,490.25c22.64,0,41-18.35,41-41h-81.99C276.12,471.89,294.47,490.25,317.11,490.25z"/>
<circle class="st2" cx="317.11" cy="410.25" r="20"/>
<ellipse cx="255.9" cy="382.54" rx="15.8" ry="21.09"/>
<ellipse cx="373.91" cy="381.02" rx="15.8" ry="21.09"/>
<g>
	<path d="M228.59,353.47l53.66-12.02v-22.96c0-1.36-1.52-2.17-2.65-1.42l-51.79,34.57C226.88,352.26,227.5,353.71,228.59,353.47z"/>
</g>
<g>
	<path d="M407.07,353.47l-53.66-12.02v-22.96c0-1.36,1.52-2.17,2.65-1.42l51.79,34.57C408.78,352.26,408.16,353.71,407.07,353.47z"
		/>
</g>
<path class="st0" d="M331.7,361.45c0,0-14.36-14.59-28.95,0v5.67c0,0,14.52-14.43,28.95,0V361.45z"/>
<circle class="st3" cx="240.9" cy="364.6" r="64.35"/>
<circle class="st3" cx="392.81" cy="364.6" r="64.35"/>
</svg>
